<svg xmlns="http://www.w3.org/2000/svg" width="13" height="14" fill="none">
  <path fill="#000" fill-rule="evenodd" d="M7.79292 8.26377c-1.43192 1.43192-3.75353 1.43192-5.18545 0-1.43192-1.43192-1.43192-3.75353 0-5.18545 1.43192-1.43192 3.75353-1.43192 5.18545 0 1.43192 1.43192 1.43192 3.75353 0 5.18545Zm.44038 1.38296c-1.96022 1.49937-4.77581 1.35267-6.56864-.44015-1.95262-1.95262-1.95262-5.11845 0-7.07107 1.95262-1.952622 5.11845-1.952622 7.07107 0 1.79277 1.79275 1.93957 4.60817.44035 6.56838l3.56672 3.56671-.9428.9428-3.5667-3.56667Z" clip-rule="evenodd"/>
</svg>
